<svg width="17" height="18" viewBox="0 0 17 18" fill="none" xmlns="http://www.w3.org/2000/svg">
<ellipse cx="3.10535" cy="11.7015" rx="2.76923" ry="1.77896" transform="rotate(13.3605 3.10535 11.7015)" fill="#0D986A"/>
<ellipse cx="4.12596" cy="6.50138" rx="3.06411" ry="2.31711" transform="rotate(39.1947 4.12596 6.50138)" fill="#0D986A"/>
<ellipse cx="8.6661" cy="3.6506" rx="3.06411" ry="2.31711" transform="rotate(71.0457 8.6661 3.6506)" fill="#0D986A"/>
<ellipse cx="13.8843" cy="4.0606" rx="2.48618" ry="1.86657" transform="rotate(85.1851 13.8843 4.0606)" fill="#0D986A"/>
<path d="M17 11C17 12.8077 14.5 14.5 13 14.5C11.383 17 10.5 17.5 9.5 17.5C8.11538 17.5 6.51758 15.5769 6.51758 12.8077C6.51758 10.0384 8.76758 7.61536 11.883 7.61536C14.9983 7.61536 17 9.19234 17 11Z" fill="#0D986A"/>
</svg>
